<svg width="16" height="16" viewBox="0 0 16 16" fill="none" xmlns="http://www.w3.org/2000/svg">
<path d="M14.835 14.8847C15.2832 14.4277 15.2832 13.6806 14.8438 13.2412L9.64941 8.04682L14.8438 2.8437C15.2832 2.40424 15.292 1.64838 14.835 1.20014C14.3867 0.7519 13.6309 0.7519 13.1914 1.19135L7.99707 6.38569L2.79395 1.19135C2.37207 0.760689 1.59863 0.743111 1.15039 1.20014C0.702148 1.64838 0.710938 2.42182 1.1416 2.8437L6.33594 8.04682L1.1416 13.2412C0.710938 13.6718 0.702148 14.4365 1.15039 14.8847C1.60742 15.333 2.37207 15.3242 2.79395 14.9023L7.99707 9.69916L13.1914 14.8935C13.6309 15.333 14.3867 15.333 14.835 14.8847Z" fill="#5200FF"/>
</svg>
