<svg width="18" height="18" viewBox="0 0 18 18" fill="none" xmlns="http://www.w3.org/2000/svg">
<path d="M16.5001 0.666748H1.50008C1.00008 0.666748 0.666748 1.00008 0.666748 1.50008V16.5001C0.666748 17.0001 1.00008 17.3334 1.50008 17.3334H16.5001C17.0001 17.3334 17.3334 17.0001 17.3334 16.5001V1.50008C17.3334 1.00008 17.0001 0.666748 16.5001 0.666748ZM13.7501 6.75008L8.08341 12.4167C7.75008 12.7501 7.25008 12.7501 6.91675 12.4167L4.25008 9.75008C3.91675 9.41675 3.91675 8.91675 4.25008 8.58342C4.58342 8.25008 5.08341 8.25008 5.41675 8.58342L7.50008 10.6667L12.5834 5.58342C12.9167 5.25008 13.4167 5.25008 13.7501 5.58342C14.0834 5.91675 14.0834 6.41675 13.7501 6.75008Z" fill="#5F2BD8"/>
</svg>
