<svg width="16" height="17" viewBox="0 0 16 17" fill="none" xmlns="http://www.w3.org/2000/svg">
<path d="M9.40994 8.5L15.7099 2.21C15.8982 2.0217 16.004 1.7663 16.004 1.5C16.004 1.2337 15.8982 0.978306 15.7099 0.790002C15.5216 0.601699 15.2662 0.495911 14.9999 0.495911C14.7336 0.495911 14.4782 0.601699 14.2899 0.790002L7.99994 7.09L1.70994 0.790002C1.52164 0.601699 1.26624 0.495911 0.999939 0.495911C0.733637 0.495911 0.478243 0.601699 0.289939 0.790002C0.101635 0.978306 -0.00415253 1.2337 -0.00415254 1.5C-0.00415254 1.7663 0.101635 2.0217 0.289939 2.21L6.58994 8.5L0.289939 14.79C0.196211 14.883 0.121816 14.9936 0.0710478 15.1154C0.0202791 15.2373 -0.00585938 15.368 -0.00585938 15.5C-0.00585938 15.632 0.0202791 15.7627 0.0710478 15.8846C0.121816 16.0064 0.196211 16.117 0.289939 16.21C0.382902 16.3037 0.493503 16.3781 0.615362 16.4289C0.737221 16.4797 0.867927 16.5058 0.999939 16.5058C1.13195 16.5058 1.26266 16.4797 1.38452 16.4289C1.50638 16.3781 1.61698 16.3037 1.70994 16.21L7.99994 9.91L14.2899 16.21C14.3829 16.3037 14.4935 16.3781 14.6154 16.4289C14.7372 16.4797 14.8679 16.5058 14.9999 16.5058C15.132 16.5058 15.2627 16.4797 15.3845 16.4289C15.5064 16.3781 15.617 16.3037 15.7099 16.21C15.8037 16.117 15.8781 16.0064 15.9288 15.8846C15.9796 15.7627 16.0057 15.632 16.0057 15.5C16.0057 15.368 15.9796 15.2373 15.9288 15.1154C15.8781 14.9936 15.8037 14.883 15.7099 14.79L9.40994 8.5Z" fill="#FA3A3A"/>
</svg>
