<svg width="80" height="80" viewBox="0 0 80 80" fill="none" xmlns="http://www.w3.org/2000/svg">
<rect x="4" y="4" width="72" height="72" rx="36" fill="#5200FF"/>
<rect x="2" y="2" width="76" height="76" rx="38" stroke="#5200FF" stroke-opacity="0.24" stroke-width="4"/>
<path d="M26.6667 37.7155C26.6667 43.8169 31.6584 48.7529 37.8144 48.7529C39.9344 48.7529 41.8947 48.1529 43.563 47.1175L49.1251 52.6417C49.6113 53.1122 50.2474 53.3333 50.9004 53.3333C52.296 53.3333 53.3334 52.2768 53.3334 50.899C53.3334 50.251 53.0925 49.6428 52.6417 49.173L47.1245 43.6932C48.2826 41.9838 48.9505 39.9346 48.9505 37.7155C48.9505 31.6142 43.9703 26.6667 37.8144 26.6667C31.6584 26.6667 26.6667 31.6142 26.6667 37.7155ZM30.2166 37.7155C30.2166 33.5475 33.609 30.1852 37.8144 30.1852C42.0081 30.1852 45.4121 33.5475 45.4121 37.7155C45.4121 41.8721 42.0081 45.2459 37.8144 45.2459C33.609 45.2459 30.2166 41.8721 30.2166 37.7155ZM33.1947 37.7155C33.1947 38.3644 33.7251 38.89 34.3913 38.89H36.6124V41.0968C36.6124 41.7571 37.1427 42.2827 37.8144 42.2827C38.469 42.2827 38.994 41.7571 38.994 41.0968V38.89H41.2205C41.8867 38.89 42.4171 38.3644 42.4171 37.7155C42.4171 37.0552 41.8867 36.5295 41.2205 36.5295H38.994V34.3281C38.994 33.6678 38.4636 33.1422 37.809 33.1422C37.1427 33.1422 36.6124 33.6678 36.6124 34.3281V36.5295H34.3913C33.7251 36.5295 33.1947 37.0552 33.1947 37.7155Z" fill="white"/>
</svg>
