<svg width="80" height="80" viewBox="0 0 80 80" fill="none" xmlns="http://www.w3.org/2000/svg">
<rect x="4" y="4" width="72" height="72" rx="36" fill="#00BBFF"/>
<rect x="2" y="2" width="76" height="76" rx="38" stroke="#00BBFF" stroke-opacity="0.24" stroke-width="4"/>
<path fill-rule="evenodd" clip-rule="evenodd" d="M47.8646 52.513C50.7682 52.513 52.3177 50.9635 52.3177 48.099V32.2917C52.3177 29.4271 50.7682 27.8906 47.8646 27.8906H32.1354C29.2448 27.8906 27.6953 29.4271 27.6953 32.2917V48.099C27.6953 50.9766 29.2448 52.513 32.1354 52.513H47.8646ZM47.5911 49.5312H32.3958C31.263 49.5312 30.6641 48.9583 30.6641 47.7734V32.6172C30.6641 31.4323 31.263 30.8724 32.3958 30.8724H47.5911C48.6979 30.8724 49.3229 31.4323 49.3229 32.6172V47.7734C49.3229 48.9583 48.6979 49.5312 47.5911 49.5312ZM36.625 38.8201C36.5264 38.8766 36.4291 38.9323 36.3411 38.9323C36.237 38.9323 36.1068 38.8672 35.9896 38.7891C35.0391 38.151 33.0859 36.7318 33.0859 34.9609C33.0859 33.8542 33.8542 33.0599 34.8438 33.0599C35.5339 33.0599 36.0417 33.4635 36.3281 33.9844C36.6146 33.4635 37.1354 33.0599 37.7995 33.0599C38.8151 33.0599 39.5833 33.8542 39.5833 34.9609C39.5833 36.7318 37.6302 38.2292 36.6797 38.7891C36.6615 38.7992 36.6432 38.8096 36.625 38.8201ZM46.0547 42.6432C46.5365 42.6432 46.901 42.2656 46.901 41.7839C46.901 41.3281 46.5365 40.9635 46.0547 40.9635H33.9453C33.4375 40.9635 33.0859 41.3281 33.0859 41.7839C33.0859 42.2656 33.4375 42.6432 33.9453 42.6432H46.0547ZM43.8151 45.9505C43.8151 46.4193 43.4505 46.7839 42.9688 46.7839H33.9453C33.4375 46.7839 33.0859 46.4193 33.0859 45.9505C33.0859 45.4688 33.4375 45.0911 33.9453 45.0911H42.9688C43.4505 45.0911 43.8151 45.4688 43.8151 45.9505Z" fill="white"/>
</svg>
