<svg width="72" height="72" viewBox="0 0 72 72" fill="none" xmlns="http://www.w3.org/2000/svg">
<path d="M37.0399 6.07007L40.3599 8.07007C45.6799 11.2901 52.6799 11.4001 59.9599 8.18005L56.6499 6.18005C49.3599 9.37005 42.3599 9.26007 37.0399 6.07007Z" fill="#00BBFF"/>
<path d="M23.99 63.0701L27.31 65.0701C19.95 60.6101 15.39 51.1301 15.31 37.6401C15.31 36.7601 15.38 35.0601 15.39 34.9801L12.07 32.9801C12.07 33.0701 12 34.7701 12 35.6501C12.04 49.1401 16.64 58.6301 23.99 63.0701Z" fill="#00BBFF"/>
<path d="M37.6501 6L34.3301 4C28.8701 15.75 20.6901 26.45 12.1101 33L15.4301 35C24.0401 28.45 32.1801 17.75 37.6501 6Z" fill="#00BBFF"/>
<path d="M37.65 6C32.18 17.75 24 28.45 15.43 35C15.43 35.08 15.35 36.78 15.35 37.66C15.41 56.76 24.53 67.83 37.82 67.98C51.04 51.85 60.04 29.83 60.04 10.73C60.04 9.85001 59.96 8.25 59.95 8.16C51.36 11.96 43.16 11.13 37.65 6Z" fill="#6123EA"/>
<path d="M45.7199 33.5501C45.7199 38.2901 42.5099 44.0701 38.5499 46.4601C34.5899 48.8501 31.3899 46.9301 31.3899 42.1901C31.3899 37.4501 34.5999 31.6701 38.5499 29.2801C42.4999 26.8901 45.7199 28.8101 45.7199 33.5501Z" fill="#00BBFF"/>
<path d="M47.17 27.02L45.5 26L38.2 38.5401L34.94 36.31L34 38L38.93 41.2501L47.17 27.02Z" fill="white"/>
</svg>
