<svg width="72" height="72" viewBox="0 0 72 72" fill="none" xmlns="http://www.w3.org/2000/svg">
<path d="M49.0096 5.61287C44.6427 3.09196 38.5984 3.43932 31.9289 7.27031C18.6594 14.8926 7.96041 33.3528 8.00011 48.508C8.00011 56.041 10.6997 61.3409 15.0071 63.8419L18.5998 65.9063C14.2925 63.4152 11.6525 58.1054 11.5929 50.5724C11.5929 35.4271 22.2621 16.957 35.5217 9.3446C42.1912 5.51361 48.2354 5.15631 52.6024 7.67722L49.0096 5.61287Z" fill="#B49DF4"/>
<path d="M35.5218 9.34478C48.7814 1.73243 59.5697 7.84613 59.6094 22.9914C59.6491 38.1368 48.9303 56.6267 35.6806 64.2391C22.4309 71.8515 11.6426 65.7377 11.593 50.5726C11.5434 35.4074 22.2622 16.9571 35.5218 9.34478Z" fill="#EBE6FF"/>
<path d="M22.2966 60.0448C14.8587 55.6513 14.9806 41.6756 22.5689 28.8291C30.1572 15.9827 42.3383 9.13028 49.7762 13.5238C57.2141 17.9173 57.0922 31.893 49.5039 44.7395C41.9156 57.5859 29.7345 64.4383 22.2966 60.0448Z" fill="#6123EA"/>
<path d="M36.0875 23.6761L35.9784 23.7456C35.5516 23.9838 35.2142 23.7456 35.2142 23.1799V20.0436C35.2191 19.7605 35.2909 19.4825 35.4237 19.2324C35.5565 18.9823 35.7466 18.7672 35.9784 18.6045L36.0875 18.545C36.5143 18.2968 36.8518 18.545 36.8518 19.1107V22.237C36.8484 22.5204 36.7773 22.799 36.6444 23.0493C36.5114 23.2997 36.3205 23.5146 36.0875 23.6761Z" fill="white"/>
<path d="M36.0875 54.9792L35.9784 55.0487C35.5516 55.2869 35.2142 55.0487 35.2142 54.473V51.3467C35.2175 51.0633 35.2886 50.7847 35.4216 50.5344C35.5545 50.284 35.7454 50.0691 35.9784 49.9076L36.0875 49.8381C36.5143 49.5999 36.8518 49.8381 36.8518 50.4038V53.5401C36.8484 53.8235 36.7773 54.1021 36.6444 54.3524C36.5114 54.6028 36.3205 54.8177 36.0875 54.9792Z" fill="white"/>
<path d="M24.5746 43.3771C24.5704 43.6386 24.5044 43.8955 24.3819 44.1267C24.2594 44.3578 24.084 44.5567 23.8699 44.707L20.7734 46.4836C20.3863 46.7118 20.0787 46.4836 20.0787 45.9575C20.0809 45.6967 20.1451 45.4401 20.2658 45.2089C20.3866 44.9777 20.5606 44.7785 20.7734 44.6276L23.8699 42.8411C24.257 42.6228 24.5746 42.861 24.5746 43.3771Z" fill="white"/>
<path d="M51.9872 27.6264C51.9841 27.8884 51.9197 28.1462 51.799 28.3788C51.6784 28.6115 51.5048 28.8127 51.2924 28.9662L48.1959 30.7428C47.8088 30.9611 47.4912 30.7428 47.4912 30.2068C47.4962 29.9454 47.5625 29.6889 47.6849 29.4578C47.8073 29.2268 47.9824 29.0278 48.1959 28.8769L51.2924 27.1301C51.6695 26.8721 51.9872 27.1301 51.9872 27.6264Z" fill="white"/>
<path d="M36.4051 36.9556C37.1495 35.9631 38.1817 35.5364 38.7077 36.0822L43.5312 40.8958C44.0572 41.4417 43.8786 42.722 43.1342 43.7541C42.3898 44.7466 41.3576 45.1734 40.8316 44.6275L36.0082 39.814C35.4722 39.2681 35.6509 37.9878 36.4051 36.9556Z" fill="white"/>
<path d="M35.6806 37.5907C35.2638 37.3624 35.2638 36.5982 35.6806 35.8836L42.2608 24.5892C42.6776 23.8845 43.3426 23.4974 43.7594 23.7356C44.1663 23.9639 44.1663 24.7281 43.7594 25.4427L37.1792 36.7372C36.7822 37.4418 36.0975 37.8289 35.6806 37.5907Z" fill="#00BBFF"/>
<path d="M32.9711 38.5536C33.0296 37.4981 33.3381 36.4716 33.8713 35.5587C34.4046 34.6459 35.1471 33.8728 36.0378 33.3034C37.7251 32.3109 39.0947 33.1049 39.0947 35.0402C39.0349 36.093 38.7268 37.1167 38.1955 38.0275C37.6642 38.9383 36.9248 39.7104 36.0378 40.2806C34.3407 41.2532 32.9711 40.4791 32.9711 38.5536Z" fill="#4702AB"/>
</svg>
