<svg width="80" height="80" viewBox="0 0 80 80" fill="none" xmlns="http://www.w3.org/2000/svg">
<rect x="4" y="4" width="72" height="72" rx="36" fill="#5FEFDE"/>
<rect x="2" y="2" width="76" height="76" rx="38" stroke="#5FEFDE" stroke-opacity="0.24" stroke-width="4"/>
<path fill-rule="evenodd" clip-rule="evenodd" d="M39.1602 50.4688C36.3216 52.5 32.6107 54.2318 30.7747 54.2318C29.043 54.2318 28.3398 52.6302 29.2773 51.3802C29.8372 50.651 30.7357 49.2578 31.2695 48.2812C27.2331 46.224 24.6289 42.3698 24.6289 38.099C24.6289 31.224 31.4648 25.6901 39.9935 25.6901C48.5352 25.6901 55.3711 31.224 55.3711 38.099C55.3711 45.1823 48.444 50.5729 39.1602 50.4688ZM34.4206 47.9947C33.8997 48.9452 32.9492 50.1822 32.3503 50.9374C32.207 51.1197 32.2852 51.2239 32.4935 51.1458C33.6263 50.69 35.9831 49.1796 37.5326 48.0208C38.0664 47.5911 38.4831 47.4348 39.043 47.4478C39.2749 47.4478 39.481 47.4521 39.6564 47.4558C39.7863 47.4585 39.8993 47.4609 39.9935 47.4609C46.8555 47.4609 52.3242 43.2551 52.3242 38.0989C52.3242 32.9296 46.8555 28.7239 39.9935 28.7239C33.1445 28.7239 27.6758 32.9296 27.6758 38.0989C27.6758 41.4322 29.9414 44.3619 33.8086 46.1978C34.6419 46.5885 34.8242 47.2395 34.4206 47.9947Z" fill="white"/>
</svg>
