<svg width="72" height="72" viewBox="0 0 72 72" fill="none" xmlns="http://www.w3.org/2000/svg">
<path d="M53.0027 54.3045L52.8728 58.2425C52.8728 60.7312 51.2336 63.2399 47.9753 65.129C41.3986 68.957 30.714 68.957 24.1074 65.129C20.7791 63.2 19.1099 60.6712 19.1099 58.1325L19.2399 54.1945C19.2399 56.7132 20.889 59.192 24.2373 61.191C30.844 65.019 41.5286 65.019 48.1052 61.191C51.3636 59.3019 53.0027 56.7832 53.0027 54.3045Z" fill="#B49DF4"/>
<path d="M48.0053 47.308C54.6119 51.1361 54.6419 57.3529 48.0852 61.181C41.5286 65.0091 30.824 65.0091 24.2174 61.181C17.6107 57.3529 17.5807 51.1861 24.1474 47.308C30.7141 43.43 41.4086 43.48 48.0053 47.308Z" fill="#EBE6FF"/>
<path d="M36.0114 27.0984C29.2363 34.1828 24.2954 42.8157 21.6187 52.2456H50.3041C47.8077 42.763 42.8813 34.0953 36.0114 27.0984Z" fill="#6E3DF4"/>
<path d="M36.0114 45.8888C42.7653 38.8007 47.6884 30.1723 50.3541 20.7515H21.6287C24.1537 30.2395 29.1113 38.9041 36.0114 45.8888Z" fill="#6E3DF4"/>
<path d="M50.3102 52.7661C50.3351 48.1735 43.9294 44.4157 36.0027 44.3728C28.076 44.3299 21.6301 48.0182 21.6052 52.6108C21.5804 57.2034 27.986 60.9612 35.9127 61.0041C43.8394 61.047 50.2854 57.3587 50.3102 52.7661Z" fill="#4B1AD3"/>
<path d="M52.8928 13.875L52.7629 17.6931C52.7629 20.1818 51.1237 22.6905 47.8654 24.5796C41.2887 28.4076 30.6041 28.4076 23.9975 24.5796C20.6692 22.6506 19 20.1218 19 17.5831L19.1299 13.7651C19.1299 16.2938 20.7891 18.8225 24.1274 20.7615C30.734 24.5896 41.4286 24.5896 47.9953 20.7615C51.2536 18.8625 52.8928 16.3738 52.8928 13.875Z" fill="#B49DF4"/>
<path d="M47.9155 6.89858C54.5221 10.7266 54.5621 16.8935 47.9954 20.7615C41.4287 24.6296 30.7342 24.5996 24.1275 20.7615C17.5209 16.9235 17.4909 10.7666 24.0575 6.88857C30.6242 3.01054 41.2988 3.06053 47.9155 6.89858Z" fill="#EBE6FF"/>
</svg>
