<svg width="72" height="72" viewBox="0 0 72 72" fill="none" xmlns="http://www.w3.org/2000/svg">
<path d="M51.5476 39.8588L65.2501 31.9951L65.2163 45.1688L51.5026 53.0326L51.5476 39.8588Z" fill="#4B1AD3"/>
<path d="M24.6713 24.7275L31.5338 12.78L65.2501 31.995L51.5476 39.8587L24.6713 24.7275Z" fill="#6123EA"/>
<path d="M51.5475 39.8589L51.5025 53.0326L24.6375 37.9013L24.6713 24.7276L51.5475 39.8589Z" fill="#6E4EE5"/>
<path d="M35.4375 14.7826L49.14 6.93005L49.005 54.6413L35.3025 62.4938L35.4375 14.7826Z" fill="#0094FF"/>
<path d="M23.49 7.86375L37.1925 0L49.14 6.93L35.4375 14.7825L23.49 7.86375Z" fill="#00BBFF"/>
<path d="M35.4375 14.7825L35.3025 62.4938L23.355 55.575L23.49 7.86377L35.4375 14.7825Z" fill="#96E3FF"/>
<path d="M18.8325 38.3512L32.535 30.4875L32.4 64.1362L18.6975 72L18.8325 38.3512Z" fill="#B49DF4"/>
<path d="M6.88501 31.4326L20.5875 23.5688L32.535 30.4876L18.8325 38.3513L6.88501 31.4326Z" fill="#DAD2FC"/>
<path d="M18.8325 38.3513L18.6975 72.0001L6.75 65.0813L6.885 31.4326L18.8325 38.3513Z" fill="#EBE6FF"/>
</svg>
