<svg width="80" height="80" viewBox="0 0 80 80" fill="none" xmlns="http://www.w3.org/2000/svg">
<rect x="4" y="4" width="72" height="72" rx="36" fill="#00BBFF"/>
<rect x="2" y="2" width="76" height="76" rx="38" stroke="#00BBFF" stroke-opacity="0.24" stroke-width="4"/>
<path fill-rule="evenodd" clip-rule="evenodd" d="M52.9362 30.3516L53.9518 29.2839C54.4857 28.724 54.5378 27.9297 54.0039 27.3828L53.6393 27.0052C53.1576 26.5234 52.3503 26.6276 51.8164 27.1484L50.7617 28.1771L52.9362 30.3516ZM37.7112 43.9453L40.4586 42.8125L51.9951 31.2761L49.8206 29.1146L38.2971 40.6511L37.1253 43.3464C36.969 43.7109 37.3596 44.0886 37.7112 43.9453ZM51.849 48.4896C51.849 51.3672 50.2995 52.9037 47.6693 52.9037H32.6042C29.7135 52.9037 28.1641 51.3672 28.1641 48.4896V33.6198C28.1641 30.7552 29.7135 29.2188 32.6042 29.2188H46.276L43.2943 32.2005H32.8776C31.7448 32.2005 31.1458 32.7604 31.1458 33.9453V48.1641C31.1458 49.349 31.7448 49.9219 32.8776 49.9219H47.3958C48.2422 49.9219 48.8672 49.349 48.8672 48.1641V37.8646L51.849 34.8828V48.4896Z" fill="white"/>
</svg>
