<svg width="40" height="47" viewBox="0 0 40 47" fill="none" xmlns="http://www.w3.org/2000/svg">
<path fill-rule="evenodd" clip-rule="evenodd" d="M29.5781 5.68388L20.0004 0.154785L10.5895 5.58751L20 0.179688L29.5781 5.68388ZM39.9733 11.6848L34.5454 14.1163L20 5.06656L4.82613 14.2973L0.0247715 11.6864L0.000748034 11.7002H0L0.000748034 34.7911L3.6505 36.898L14.778 14.6264L16.0264 15.331L14.8234 14.6464L19.9998 11.4743L25.1763 14.647L22.8597 15.9649L25.2317 14.6208L36.3488 36.8988L39.9999 34.7911V11.7002L39.9733 11.6848ZM14.2407 29.4248L9.05587 40.0185L20.0004 46.3365L30.7781 40.1147L25.6343 37.2595L23.7512 34.0096H16.2491L14.6698 37.4114L9.06604 40.0204L14.2407 29.4248ZM20.2284 21.3755L16.2495 30.1228H24.602L20.2284 21.3755Z" fill="#5200FF" fill-opacity="0.4"/>
<path fill-rule="evenodd" clip-rule="evenodd" d="M4.82613 14.2976L0 11.6731L20 0.179932L39.9999 11.6731L34.5454 14.1166L20 5.0668L4.82613 14.2976ZM19.9998 11.4746L14.8234 14.6467L19.9998 17.5922L25.1763 14.6473L19.9998 11.4746ZM14.6698 37.4116L9.06604 40.0207L20.0115 17.6086L31.0915 40.2889L25.6343 37.2597L23.7512 34.0099H16.2491L14.6698 37.4116ZM16.2495 30.1231L20.2284 21.3757L24.602 30.1231H16.2495Z" fill="#5200FF"/>
</svg>
