<svg width="16" height="16" viewBox="0 0 16 16" fill="none" xmlns="http://www.w3.org/2000/svg">
<path fill-rule="evenodd" clip-rule="evenodd" d="M16 7.99617C16 12.3807 12.3866 16 8 16C3.6134 16 0 12.3807 0 7.99617C0 3.61167 3.6134 0 8 0C12.3789 0 16 3.61167 16 7.99617ZM1.81433 7.99621C1.81433 11.4319 4.57031 14.2019 8.00763 14.2019C11.4449 14.2019 14.2162 11.4319 14.2162 7.99621C14.2086 4.56053 11.4449 1.79822 8.00763 1.79822C4.56265 1.79822 1.81433 4.56053 1.81433 7.99621ZM7.82011 9.46533C8.27178 9.46533 8.57035 9.22047 8.60863 8.8991C8.61245 8.88762 8.61437 8.87232 8.61628 8.85701C8.61819 8.84171 8.62011 8.8264 8.62394 8.81493C8.66221 8.43999 8.95312 8.18748 9.42011 7.8814C10.1857 7.39168 10.6297 6.95553 10.6297 6.09087C10.6297 4.82067 9.4737 4.05548 8.06508 4.05548C6.75599 4.05548 5.84499 4.62937 5.5847 5.36395C5.53111 5.50168 5.50049 5.63176 5.50049 5.7848C5.50049 6.16739 5.80671 6.44286 6.23542 6.44286C6.63952 6.44286 6.78884 6.26518 6.96487 6.05572L6.96488 6.05571C6.98893 6.02709 7.01348 5.99788 7.03925 5.96844C7.28422 5.62411 7.57513 5.42516 7.98087 5.42516C8.51676 5.42516 8.86126 5.73123 8.86126 6.18269C8.86126 6.61885 8.53973 6.86371 7.91197 7.29986C7.36843 7.6748 6.99331 8.05739 6.99331 8.6925V8.76902C6.99331 9.22813 7.28422 9.46533 7.82011 9.46533ZM8.76558 10.988C8.76558 11.5083 8.34453 11.8679 7.80864 11.8679C7.27276 11.8679 6.84405 11.5083 6.84405 10.988C6.84405 10.4753 7.27276 10.1157 7.80864 10.1157C8.34453 10.1157 8.76558 10.4753 8.76558 10.988Z" fill="black" fill-opacity="0.4"/>
</svg>
