<svg width="18" height="15" viewBox="0 0 18 15" fill="none" xmlns="http://www.w3.org/2000/svg">
<path fill-rule="evenodd" clip-rule="evenodd" d="M15.3867 14.3359C16.9648 14.3359 17.8945 13.4141 17.8945 11.6875V3.04688C17.8945 1.32813 16.9648 0.40625 15.2305 0.40625H2.61328C1.03516 0.40625 0.105469 1.32813 0.105469 3.04688V11.6875C0.105469 13.4141 1.03516 14.3359 2.76953 14.3359H15.3867ZM9.00781 7.98437C8.72656 7.98437 8.47656 7.85156 8.15625 7.53906L2.64844 2.10156C2.70312 2.09375 2.75781 2.09375 2.8125 2.09375H15.1797C15.2422 2.09375 15.2969 2.09375 15.3594 2.10156L9.85156 7.53906C9.53125 7.85156 9.28125 7.98437 9.00781 7.98437ZM1.76953 3.3125V11.3438L5.83203 7.3125L1.76953 3.3125ZM16.2344 11.3204L12.1875 7.31262L16.2344 3.32825V11.3204ZM2.8125 12.6484H15.1797C15.2656 12.6484 15.3516 12.6406 15.4297 12.6328L11.1172 8.35156L10.7578 8.71094C10.1797 9.28125 9.60938 9.53125 9.00781 9.53125C8.39844 9.53125 7.82812 9.28125 7.25 8.71094L6.89062 8.35938L2.57812 12.6328C2.64844 12.6406 2.72656 12.6484 2.8125 12.6484Z" fill="white"/>
</svg>
