<svg width="18" height="17" viewBox="0 0 18 17" fill="none" xmlns="http://www.w3.org/2000/svg">
<path d="M16.5001 0.166687H1.50008C1.00008 0.166687 0.666748 0.50002 0.666748 1.00002V16C0.666748 16.5 1.00008 16.8334 1.50008 16.8334H16.5001C17.0001 16.8334 17.3334 16.5 17.3334 16V1.00002C17.3334 0.50002 17.0001 0.166687 16.5001 0.166687ZM13.7501 6.25002L8.08341 11.9167C7.75008 12.25 7.25008 12.25 6.91675 11.9167L4.25008 9.25002C3.91675 8.91669 3.91675 8.41669 4.25008 8.08335C4.58342 7.75002 5.08341 7.75002 5.41675 8.08335L7.50008 10.1667L12.5834 5.08335C12.9167 4.75002 13.4167 4.75002 13.7501 5.08335C14.0834 5.41669 14.0834 5.91669 13.7501 6.25002Z" fill="#2DDB92"/>
</svg>
