<svg width="72" height="72" viewBox="0 0 72 72" fill="none" xmlns="http://www.w3.org/2000/svg">
<path d="M66.3748 17.5725L66.2735 54.4275L36.056 72L36.1573 35.145L66.3748 17.5725Z" fill="#6123EA"/>
<path d="M36.1575 35.145L36.0563 72L5.625 54.4275L5.73751 17.5725L36.1575 35.145Z" fill="#541ECA"/>
<path d="M66.3748 17.5725L36.1573 35.145L5.73734 17.5725L35.9549 0L66.3748 17.5725Z" fill="#6E3DF4"/>
<path d="M41.8275 65.3514L39.4538 63.9564L39.3863 37.9351L41.76 39.3301L41.8275 65.3514Z" fill="#0094FF"/>
<path d="M41.76 39.3301L39.3863 37.9351L61.6838 24.8513L64.0575 26.2576L41.76 39.3301Z" fill="#4FD0FF"/>
<path d="M64.0573 26.2576L64.1361 52.2788L41.8274 65.3513L41.7599 39.3301L64.0573 26.2576Z" fill="#00BBFF"/>
<path d="M52.9986 40.2412C56.1373 38.4187 58.6911 39.8812 58.7024 43.5037C58.6043 45.4727 58.044 47.3908 57.0667 49.103C56.0895 50.8151 54.7228 52.273 53.0774 53.3587C49.9386 55.17 47.3848 53.7075 47.3736 50.085C47.4734 48.118 48.0345 46.202 49.0117 44.492C49.9889 42.782 51.3546 41.3258 52.9986 40.2412Z" fill="#0094FF"/>
<path d="M56.9137 39.51C56.4377 39.2889 55.9111 39.1994 55.3887 39.2508C54.8664 39.3023 54.3674 39.4928 53.9437 39.8025C52.7343 40.5971 51.7286 41.6647 51.0075 42.9192C50.2865 44.1737 49.8702 45.5801 49.7924 47.025C49.7428 47.5386 49.829 48.0563 50.0422 48.5261C50.2554 48.996 50.5883 49.4016 51.0074 49.7025L53.6287 51.2663C53.225 50.9533 52.9093 50.5412 52.7121 50.0701C52.515 49.5989 52.4432 49.0847 52.5037 48.5775C52.5797 47.1338 52.9952 45.7283 53.7165 44.4753C54.4378 43.2223 55.4446 42.1571 56.6549 41.3663C57.0786 41.0565 57.5776 40.866 58.1 40.8146C58.6223 40.7631 59.1489 40.8526 59.6249 41.0738L56.9137 39.51Z" fill="#B49DF4"/>
<path d="M55.3499 42.5363L52.5487 40.8938L53.7974 36.3826L56.6099 38.0251L55.3499 42.5363Z" fill="#541ECA"/>
<path d="M56.6099 38.025L57.8812 41.0625L55.3499 42.5363L56.6099 38.025Z" fill="#6123EA"/>
<path d="M56.6099 41.3663C58.9161 40.0276 60.7836 41.0963 60.7949 43.7513C60.7206 45.197 60.3059 46.6048 59.5845 47.8599C58.8631 49.115 57.8555 50.1819 56.6436 50.9738C54.3374 52.3126 52.4699 51.2326 52.4586 48.5776C52.5346 47.1338 52.9502 45.7283 53.6715 44.4753C54.3928 43.2223 55.3995 42.1571 56.6099 41.3663Z" fill="#DCD7F9"/>
<path d="M59.1075 43.9539C58.8723 43.8421 58.6114 43.7957 58.3521 43.8194C58.0928 43.8432 57.8447 43.9362 57.6337 44.0889C57.0285 44.4788 56.5257 45.0082 56.1675 45.6326C55.8092 46.2571 55.606 46.9584 55.575 47.6776C55.5475 47.9319 55.5883 48.1889 55.693 48.4222C55.7978 48.6556 55.9629 48.8567 56.1712 49.0051L57.4987 49.7814C57.2883 49.6343 57.1211 49.4337 57.0143 49.2003C56.9074 48.9669 56.865 48.7092 56.8912 48.4539C56.9372 47.7443 57.147 47.055 57.5042 46.4401C57.8615 45.8253 58.3563 45.3016 58.95 44.9101C59.1614 44.7589 59.4087 44.6658 59.6673 44.6402C59.9259 44.6145 60.1868 44.6572 60.4237 44.7639L59.1075 43.9539Z" fill="#B49DF4"/>
<path d="M58.9498 44.9101C60.0748 44.2464 61.031 44.7863 61.031 46.1026C60.9919 46.82 60.7853 47.5182 60.4278 48.1414C60.0703 48.7646 59.5718 49.2954 58.9723 49.6914C57.8473 50.3439 56.8911 49.8151 56.8911 48.4989C56.9302 47.7815 57.1368 47.0832 57.4943 46.46C57.8518 45.8368 58.3503 45.306 58.9498 44.9101Z" fill="#6123EA"/>
</svg>
