<svg width="72" height="72" viewBox="0 0 72 72" fill="none" xmlns="http://www.w3.org/2000/svg">
<path d="M48.0786 10.0488L48.6759 9.06958C48.6759 9.06958 44.4556 6.56284 44.3479 6.51388C40.4311 4.39882 35.1239 4.80028 29.2683 8.23726C17.2927 15.2777 7.57913 32.2471 7.57913 46.2104C7.57913 52.8298 9.78231 57.5495 13.3564 59.9192L17.0577 62.1517L17.4788 61.4565C20.8276 61.9657 24.7934 61.0942 29.0627 58.5973C41.0382 51.5666 50.7518 34.558 50.7518 20.5947C50.8899 16.8958 49.962 13.2352 48.0786 10.0488Z" fill="#0094FF"/>
<path d="M48.34 44.3883C56.7628 29.5253 56.6872 13.5642 48.1712 8.73818C39.6552 3.91221 25.9236 12.0489 17.5008 26.9119C9.07802 41.7749 9.15358 57.736 17.6696 62.5619C26.1856 67.3879 39.9172 59.2513 48.34 44.3883Z" fill="#00BBFF"/>
<path d="M45.0077 42.4956C51.6174 30.832 51.5596 18.3075 44.8785 14.5213C38.1974 10.7352 27.4231 17.1212 20.8134 28.7848C14.2037 40.4485 14.2615 52.9729 20.9426 56.7591C27.6237 60.5452 38.398 54.1592 45.0077 42.4956Z" fill="#6123EA"/>
<path d="M41.6937 40.6176C46.4904 32.1533 46.4465 23.0632 41.5956 20.3143C36.7448 17.5653 28.924 22.1985 24.1273 30.6628C19.3307 39.127 19.3746 48.2171 24.2254 50.966C29.0763 53.715 36.8971 49.0818 41.6937 40.6176Z" fill="#00BBFF"/>
<path d="M38.3615 38.7249C41.3451 33.46 41.3189 27.8065 38.303 26.0974C35.2871 24.3883 30.4236 27.2709 27.44 32.5357C24.4565 37.8006 24.4827 43.4541 27.4986 45.1632C30.5144 46.8723 35.378 43.9898 38.3615 38.7249Z" fill="#6123EA"/>
<g style="mix-blend-mode:multiply">
<path d="M35.2121 37.5152L19.7702 63.4541C18.6208 63.0566 17.5331 62.4995 16.5388 61.7992L32.0297 35.361L35.2121 37.5152Z" fill="#DEDAF7"/>
</g>
<path d="M69.6699 58.6266L66.0468 57.1284L66.8694 55.6596L69.6699 58.6266Z" fill="#6123EA"/>
<path d="M34.4678 33.8039C34.28 33.7139 34.0711 33.6772 33.8638 33.698C33.6566 33.7187 33.4591 33.796 33.2928 33.9214C32.8041 34.245 32.3992 34.6801 32.1115 35.1908C31.8238 35.7016 31.6615 36.2733 31.638 36.859C31.6169 37.0648 31.6502 37.2725 31.7344 37.4615C31.8185 37.6505 31.9507 37.8141 32.1178 37.9361L65.2145 57.52C65.0434 57.4013 64.9076 57.2385 64.8214 57.0489C64.7352 56.8593 64.7019 56.6499 64.7249 56.4429C64.7516 55.8579 64.9152 55.2873 65.2026 54.7771C65.49 54.2669 65.8932 53.8312 66.3798 53.5053C66.5474 53.3828 66.7447 53.3073 66.9513 53.2867C67.1579 53.266 67.3663 53.3009 67.5548 53.3878L34.4678 33.8039Z" fill="#EBE6FF"/>
<path d="M66.3798 53.4662C67.2905 52.9375 68.0347 53.3683 68.0444 54.4454C68.0201 55.0309 67.8575 55.6024 67.5699 56.113C67.2822 56.6236 66.8778 57.0588 66.3896 57.383C65.479 57.9216 64.7348 57.5005 64.725 56.4038C64.7516 55.8188 64.9152 55.2482 65.2026 54.738C65.4901 54.2278 65.8933 53.7921 66.3798 53.4662Z" fill="#B49DF4"/>
<path d="M66.8694 55.0917L70.2477 57.4711L69.6699 58.6266L66.2428 56.1884L66.8694 55.0917Z" fill="#B49DF4"/>
<path d="M59.3688 42.9496C58.8887 42.5933 58.3207 42.3741 57.7257 42.3155C57.1307 42.2568 56.531 42.3609 55.9905 42.6167L54.8155 43.3119C55.3559 43.0562 55.9557 42.9521 56.5507 43.0107C57.1457 43.0693 57.7136 43.2885 58.1937 43.6449L64.9697 47.6204V53.5739L66.1448 52.8787V46.9252L59.3688 42.9496Z" fill="#B49DF4"/>
<path d="M64.9697 47.5911V53.5446L52.4948 46.23L54.1007 43.9681C54.9526 42.7539 56.5193 42.6266 58.2133 43.6155L64.9697 47.5911Z" fill="#6123EA"/>
<path d="M61.4348 61.6523L63.6576 56.4136L51.1827 49.148C50.9199 50.1057 50.7784 51.0926 50.7616 52.0856C50.7811 52.9683 51.025 53.8315 51.4705 54.5939C51.9159 55.3563 52.5481 55.9926 53.3075 56.443C55.3149 57.7355 61.4348 61.6523 61.4348 61.6523Z" fill="#6123EA"/>
<path d="M61.425 61.6523L62.7176 62.0244L64.9697 57.1382L63.6478 56.4136L61.425 61.6523Z" fill="#B49DF4"/>
</svg>
