<svg width="72" height="72" viewBox="0 0 72 72" fill="none" xmlns="http://www.w3.org/2000/svg">
<path d="M30.8671 19.5269L27.8677 17.6973L51.903 4L54.9024 5.82964L30.8671 19.5269Z" fill="#B49DF4"/>
<path d="M54.9024 5.82971L47.7438 20.8268L54.9624 27.6354L30.9271 41.3327L30.8671 19.527L54.9024 5.82971Z" fill="#6123EA"/>
<path d="M42.0351 57.2596L41.9652 60.9089C41.9652 62.7186 40.7554 64.5382 38.3459 65.9079C33.4768 68.6974 25.5684 68.6974 20.6893 65.9079C18.2198 64.5082 16.9901 62.6686 17.0001 60.8289L17.1 57.1996C17.1 59.0393 18.3198 60.8789 20.7793 62.2786C25.6684 65.0681 33.5768 65.0681 38.4359 62.2786C40.8254 60.9089 42.0251 59.0693 42.0351 57.2596Z" fill="#0094FF"/>
<path d="M38.3557 52.1806C43.2347 54.96 43.2647 59.4792 38.3557 62.2686C33.4466 65.0581 25.5882 65.0581 20.6991 62.2686C15.8101 59.4792 15.7901 54.97 20.6491 52.1806C25.5082 49.3911 33.4566 49.3911 38.3557 52.1806Z" fill="#00BBFF"/>
<path d="M31.1771 13.0983V56.6698C31.1605 56.8503 31.0975 57.0234 30.9941 57.1724C30.8907 57.3213 30.7505 57.4409 30.5872 57.5196C30.1461 57.7508 29.6555 57.8716 29.1575 57.8716C28.6595 57.8716 28.1689 57.7508 27.7278 57.5196C27.5637 57.4393 27.4231 57.3179 27.3198 57.1672C27.2164 57.0166 27.1537 56.8418 27.1379 56.6598V13.0883C27.1537 13.2716 27.2175 13.4476 27.3228 13.5985C27.4281 13.7494 27.5712 13.87 27.7378 13.9481C28.1771 14.1793 28.6661 14.3001 29.1625 14.3001C29.6589 14.3001 30.1479 14.1793 30.5872 13.9481C30.7537 13.8738 30.8966 13.7552 31.0006 13.6055C31.1046 13.4557 31.1656 13.2803 31.1771 13.0983Z" fill="#C5C2F9"/>
<path d="M30.588 12.2386C30.7634 12.3025 30.9149 12.4188 31.0219 12.5718C31.129 12.7247 31.1864 12.9069 31.1864 13.0936C31.1864 13.2803 31.129 13.4624 31.0219 13.6154C30.9149 13.7683 30.7634 13.8847 30.588 13.9486C30.1486 14.1798 29.6595 14.3006 29.163 14.3006C28.6665 14.3006 28.1774 14.1798 27.738 13.9486C27.5668 13.8805 27.4199 13.7627 27.3164 13.6102C27.213 13.4578 27.1577 13.2778 27.1577 13.0936C27.1577 12.9093 27.213 12.7293 27.3164 12.5769C27.4199 12.4245 27.5668 12.3066 27.738 12.2386C28.1779 12.009 28.6668 11.8891 29.163 11.8891C29.6592 11.8891 30.1481 12.009 30.588 12.2386Z" fill="#AB8DFF"/>
</svg>
