<svg width="80" height="80" viewBox="0 0 80 80" fill="none" xmlns="http://www.w3.org/2000/svg">
<rect x="4" y="4" width="72" height="72" rx="36" fill="#295EFF"/>
<rect x="2" y="2" width="76" height="76" rx="38" stroke="#295EFF" stroke-opacity="0.24" stroke-width="4"/>
<path fill-rule="evenodd" clip-rule="evenodd" d="M43.6458 53.112C43.3854 54.2057 42.474 54.9219 41.3151 54.9219H38.6719C37.526 54.9219 36.6146 54.2057 36.3542 53.112L35.8464 50.9375L35.5729 50.8333L33.6719 52.0052C32.7083 52.6042 31.5495 52.4479 30.7552 51.6276L28.9193 49.8047C28.099 48.9714 27.9557 47.8385 28.5547 46.888L29.7266 45L29.6354 44.7396L27.4609 44.2188C26.3802 43.9583 25.6641 43.0469 25.6641 41.901V39.349C25.6641 38.2161 26.3672 37.3047 27.4609 37.0313L29.6094 36.4974L29.7266 36.224L28.5417 34.3359C27.9427 33.3984 28.0859 32.2656 28.9062 31.4193L30.7422 29.5833C31.5365 28.776 32.6823 28.6198 33.6589 29.2188L35.5469 30.3776L35.8464 30.2604L36.3542 28.0859C36.6146 26.9922 37.526 26.276 38.6719 26.276H41.3151C42.474 26.276 43.3854 26.9922 43.6458 28.0859L44.1406 30.2604L44.4401 30.3776L46.3411 29.2188C47.3047 28.6198 48.4505 28.776 49.2578 29.5833L51.0807 31.4193C51.901 32.2656 52.0573 33.3984 51.4453 34.3359L50.2734 36.224L50.3776 36.4974L52.526 37.0313C53.6198 37.2917 54.3359 38.2161 54.3359 39.349V41.901C54.3359 43.0469 53.6198 43.9453 52.526 44.2188L50.3646 44.7396L50.2604 45L51.4453 46.888C52.0443 47.8385 51.901 48.9714 51.0807 49.8047L49.2448 51.6276C48.4375 52.4479 47.2917 52.6042 46.3281 52.0052L44.4271 50.8333L44.1406 50.9375L43.6458 53.112ZM39.1016 52.2525H40.8984C41.1198 52.2525 41.2109 52.1614 41.25 51.9661L42.0182 48.789C42.9297 48.5806 43.6849 48.2551 44.401 47.7994L47.1875 49.5051C47.3438 49.6093 47.5 49.5963 47.6562 49.453L48.8932 48.203C49.0495 48.0598 49.0495 47.9036 48.9453 47.7473L47.2266 44.9609C47.6432 44.2838 47.9948 43.4504 48.1771 42.6041L51.3802 41.8489C51.5755 41.8098 51.6667 41.7056 51.6667 41.4973V39.7525C51.6667 39.5181 51.5755 39.427 51.3802 39.3879L48.1901 38.6197C47.9948 37.7473 47.6172 36.901 47.2526 36.2499L48.9583 33.4765C49.0625 33.3072 49.0625 33.151 48.9193 33.0077L47.6693 31.7708C47.5 31.6275 47.3698 31.6145 47.1875 31.7187L44.4141 33.4114C43.7109 32.9947 42.9036 32.6301 42.0182 32.4348L41.25 29.2317C41.2109 29.0364 41.1198 28.9452 40.8984 28.9452H39.1016C38.8802 28.9452 38.776 29.0364 38.75 29.2317L37.9818 32.4088C37.1094 32.6301 36.1849 33.0077 35.5729 33.4114L32.7995 31.7056C32.6172 31.6015 32.474 31.6145 32.3177 31.7708L31.0677 32.9947C30.9115 33.1379 30.9245 33.2942 31.0286 33.4765L32.7474 36.2499C32.3698 36.901 31.9922 37.7473 31.7969 38.6327L28.6198 39.3879C28.4115 39.427 28.3203 39.5181 28.3203 39.7525V41.4973C28.3203 41.7056 28.4245 41.8098 28.6198 41.8489L31.8099 42.6041C31.9922 43.4504 32.3568 44.2708 32.7604 44.9609L31.0417 47.7473C30.9375 47.9166 30.9375 48.0728 31.0807 48.2161L32.3307 49.4661C32.487 49.6093 32.6432 49.6223 32.7995 49.5181L35.5859 47.7994C36.2891 48.2551 37.1224 48.5937 37.9818 48.789L38.75 51.9661C38.776 52.1614 38.8802 52.2525 39.1016 52.2525ZM39.9935 45.5338C42.6888 45.5338 44.9023 43.3072 44.9023 40.5989C44.9023 37.9036 42.6888 35.703 39.9935 35.703C37.2852 35.703 35.0586 37.9036 35.0586 40.5989C35.0586 43.3072 37.2852 45.5338 39.9935 45.5338ZM37.5195 40.5989C37.5195 41.9791 38.6393 43.0989 40.0065 43.0989C41.3477 43.0989 42.4674 41.9661 42.4674 40.5989C42.4674 39.2577 41.3477 38.1249 40.0065 38.1249C38.6523 38.1249 37.5195 39.2447 37.5195 40.5989Z" fill="white"/>
</svg>
