<svg width="80" height="80" viewBox="0 0 80 80" fill="none" xmlns="http://www.w3.org/2000/svg">
<rect x="4" y="4" width="72" height="72" rx="36" fill="#5200FF"/>
<rect x="2" y="2" width="76" height="76" rx="38" stroke="#5200FF" stroke-opacity="0.24" stroke-width="4"/>
<path fill-rule="evenodd" clip-rule="evenodd" d="M31.5951 52.2266C31.5951 53.0078 30.9701 53.6198 30.2018 53.6198C29.4336 53.6198 28.8086 52.9818 28.8086 52.2266V30.638C28.8086 29.4531 29.3555 28.7891 30.306 28.3594C31.4128 27.8516 32.4023 27.5912 34.3294 27.5912C36.6834 27.5912 38.7186 28.1988 40.7335 28.8004C42.7086 29.3901 44.6643 29.974 46.8815 29.974C48.0761 29.974 48.9678 29.8009 49.6677 29.6651C50.1198 29.5774 50.4919 29.5052 50.8138 29.5052C51.8034 29.5052 52.5195 30.1563 52.5195 31.1328V43.8932C52.5195 45.1172 51.9987 45.9245 51.0352 46.3672C50.0195 46.849 48.9648 47.1224 46.9857 47.1224C44.7037 47.1224 42.738 46.5317 40.7641 45.9386C38.7733 45.3403 36.7742 44.7396 34.4336 44.7396C33.0805 44.7396 32.1309 45.031 31.6889 45.1667C31.6545 45.1773 31.6232 45.1869 31.5951 45.1953V52.2266ZM41.2052 43.1556C43.0975 43.724 44.9184 44.2709 46.9076 44.2709C48.457 44.2709 49.3555 43.8543 49.6159 43.5157V32.4871C48.8867 32.6824 47.9232 32.7996 46.7904 32.7996C44.424 32.7996 42.3781 32.1854 40.3694 31.5824C38.4323 31.0009 36.5298 30.4298 34.4076 30.4298C32.8581 30.4298 31.9727 30.8725 31.6992 31.198V42.2657C32.3503 42.0313 33.3789 41.9011 34.5117 41.9011C37.0285 41.9011 39.1586 42.5409 41.2052 43.1556Z" fill="white"/>
</svg>
