<svg width="80" height="80" viewBox="0 0 80 80" fill="none" xmlns="http://www.w3.org/2000/svg">
<rect x="4" y="4" width="72" height="72" rx="36" fill="#5FEFDE"/>
<rect x="2" y="2" width="76" height="76" rx="38" stroke="#5FEFDE" stroke-opacity="0.24" stroke-width="4"/>
<path fill-rule="evenodd" clip-rule="evenodd" d="M50.6445 52.2266C53.2747 52.2266 54.8242 50.6901 54.8242 47.8125V33.4114C54.8242 30.5469 53.2747 29.0104 50.3841 29.0104H29.3555C26.7253 29.0104 25.1758 30.5469 25.1758 33.4114V47.8125C25.1758 50.6901 26.7253 52.2266 29.6159 52.2266H50.6445ZM40.013 41.6405C39.5443 41.6405 39.1276 41.4192 38.5938 40.8983L29.4141 31.8358C29.5052 31.8228 29.5964 31.8228 29.6875 31.8228H50.2995C50.4036 31.8228 50.4948 31.8228 50.599 31.8358L41.4193 40.8983C40.8854 41.4192 40.4688 41.6405 40.013 41.6405ZM27.9492 33.8541V47.2395L34.7201 40.5207L27.9492 33.8541ZM52.0573 47.2004L45.3125 40.5207L52.0573 33.8801V47.2004ZM29.6875 49.414H50.2995C50.4427 49.414 50.5859 49.401 50.7161 49.3879L43.5286 42.2525L42.9297 42.8515C41.9661 43.802 41.0156 44.2187 40.013 44.2187C38.9974 44.2187 38.0469 43.802 37.0833 42.8515L36.4844 42.2655L29.2969 49.3879C29.4141 49.401 29.5443 49.414 29.6875 49.414Z" fill="white"/>
</svg>
