<svg width="18" height="19" viewBox="0 0 18 19" fill="none" xmlns="http://www.w3.org/2000/svg">
<path fill-rule="evenodd" clip-rule="evenodd" d="M9.01172 14.9609C9.37109 14.9609 9.90234 13.6172 9.90234 11.6719V6.75C11.2617 6.36719 12.2383 5.10938 12.2383 3.64063C12.2383 1.85156 10.8086 0.398438 9.01172 0.398438C7.21484 0.398438 5.77734 1.85156 5.77734 3.64063C5.77734 5.10938 6.76172 6.35938 8.10547 6.75V11.6719C8.10547 13.6094 8.64453 14.9609 9.01172 14.9609ZM8.09766 3.82806C7.51172 3.82806 6.99609 3.30463 6.99609 2.71088C6.99609 2.10931 7.51172 1.60931 8.09766 1.60931C8.70703 1.60931 9.19922 2.10931 9.19922 2.71088C9.19922 3.30463 8.70703 3.82806 8.09766 3.82806ZM17.3477 14.4219C17.3477 16.5078 14.168 18.2109 8.99609 18.2109C3.82422 18.2109 0.644531 16.5078 0.644531 14.4219C0.644531 12.2891 3.82422 10.8672 6.71484 10.6875V12.2812C4.79297 12.4062 2.58203 13.1953 2.58203 14.2969C2.58203 15.6484 5.26953 16.5547 8.99609 16.5547C12.7148 16.5547 15.4023 15.6406 15.4023 14.2969C15.4023 13.1953 13.1992 12.4062 11.2695 12.2812V10.6875C14.168 10.8672 17.3477 12.2891 17.3477 14.4219Z" fill="white"/>
</svg>
